<svg xmlns="http://www.w3.org/2000/svg" xmlns:xlink="http://www.w3.org/1999/xlink" xmlns:serif="http://www.serif.com/" width="100%" height="100%" viewBox="0 0 267 249" xml:space="preserve" style="fill-rule:evenodd;clip-rule:evenodd;stroke-miterlimit:2;">    <g id="Artboard1" transform="matrix(0.762963,0,0,0.676056,-75.0299,-56.0023)">        <rect x="98.34" y="82.837" width="349.037" height="367.135" style="fill:none;"></rect>        <clipPath id="_clip1">            <rect x="98.34" y="82.837" width="349.037" height="367.135"></rect>        </clipPath>        <g clip-path="url(#_clip1)">            <g transform="matrix(5.46117,0,0,6.16319,-77.5483,-168.482)">                <path d="M62.773,79.393L64.91,79.393M69.428,80.312L71.566,80.312M74.649,77.065L76.787,77.065M67.914,76.525L70.051,76.525M63.436,74.631L65.573,74.631M73.853,53.775L83.297,53.775L85.948,55.777L83.297,57.671L73.853,57.671L73.853,53.775ZM73.853,46.741L64.409,46.741L61.758,48.743L64.409,50.637L73.853,50.637L73.853,46.741ZM73.853,72.821L73.853,43.603M74.024,69.338C78.055,70.242 82.292,70.867 85.663,71.357C89.529,71.92 93.145,72.335 95.832,72.615M54.881,52.534C61.729,54.577 62.899,57.021 62.754,59.26C62.513,62.998 61.519,64.841 65.734,66.755C67.342,67.484 69.222,68.109 71.223,68.649M70.819,94.007C60.649,90.308 50.881,85.901 44.95,81.109C41.675,78.499 39.922,75.901 39.339,73.472C37.795,67.029 43.38,64.442 47.622,61.596C55.549,56.275 49.864,54.097 46.778,53.258" style="fill:rgb(176,225,175);stroke:rgb(35,31,32);stroke-width:1.42px;"></path>            </g>        </g>    </g></svg>