<svg xmlns="http://www.w3.org/2000/svg" xmlns:xlink="http://www.w3.org/1999/xlink" xmlns:serif="http://www.serif.com/" width="100%" height="100%" viewBox="0 0 1717 1480" xml:space="preserve" style="fill-rule:evenodd;clip-rule:evenodd;stroke-miterlimit:2;">    <g transform="matrix(4.16667,0,0,4.16667,0,0)">        <path d="M171.277,161.934L182.419,161.934L182.419,158.878M137.257,161.94L118.467,161.944C116.655,161.986 116.079,160.758 116.031,159.251L116.031,145.738C116.083,135.67 117.126,129.821 126.84,128.632C133.229,127.85 141.497,128.126 148.908,129.496C160.98,131.727 171.277,138.665 171.277,154.979L171.277,161.934L150.051,161.938M143.654,153.72C147.284,153.72 150.228,156.663 150.228,160.294C150.228,168.941 137.08,168.941 137.08,160.294C137.08,156.663 140.023,153.72 143.654,153.72ZM123.244,136.002L131.809,136.002C132.887,136.002 133.768,136.787 133.768,137.743L133.768,157.363C133.768,158.32 132.885,159.105 131.809,159.105L123.244,159.105C122.167,159.105 121.284,158.322 121.284,157.363L121.284,137.743C121.284,136.784 122.165,136.002 123.244,136.002ZM139.29,136.002L152.129,136.002C152.49,136.002 152.785,136.423 152.785,136.938L152.785,143.817C152.785,144.332 152.49,144.753 152.129,144.753L139.29,144.753C138.929,144.753 138.633,144.332 138.633,143.817L138.633,136.938C138.633,136.423 138.929,136.002 139.29,136.002Z" style="fill:rgb(176,225,175);stroke:rgb(35,31,32);stroke-width:1.42px;"></path>        <path d="M133.653,312.068L141.774,297.35L149.894,312.068M120.529,312.066L163.019,312.066M124.707,312.066L145.104,276.738M158.84,312.066L138.443,276.738" style="fill:rgb(176,225,175);stroke:rgb(35,31,32);stroke-width:1.42px;"></path>        <path d="M48.683,230.004L48.683,235.211M42.816,213.832L48.859,209.242L54.903,213.832M40.792,222.598L48.859,216.514L56.927,222.598M38.768,231.363L48.859,223.785L58.951,231.363M79.844,229.002L79.844,235.211M70.968,207.77L79.844,201.219L88.72,207.77M68.035,217.205L79.844,208.49L91.653,217.205M66.696,225.465L79.844,215.762L92.992,225.465M66.092,233.182L79.844,223.031L93.596,233.182" style="fill:rgb(176,225,175);stroke:rgb(35,31,32);stroke-width:1.42px;"></path>        <path d="M250.047,145.421L245.477,145.421M250.047,142.388L245.477,142.388L245.477,148.454L250.047,148.454M205.417,142.388L206.5,148.454L206.716,148.454L208.421,144.3L208.432,144.3L210.138,148.454L210.354,148.454L211.438,142.388M225.95,166.953C226.001,168.778 228.166,169.33 229.555,168.696C230.324,168.345 230.648,167.659 230.465,167.053C230.193,166.153 229.094,165.95 228.301,165.771C227.665,165.627 226.95,165.423 226.568,165.005C225.957,164.337 226.363,163.422 227.153,163.095C228.433,162.564 230.35,163.012 230.414,164.639M226.456,128.695L226.456,123.559L226.616,123.559L229.85,127.747L230.01,127.747L230.01,122.628M215.957,152.127C214.868,150.136 214.248,147.85 214.248,145.421C214.248,137.697 220.509,131.436 228.232,131.436C230.432,131.436 232.513,131.943 234.363,132.848M239.301,136.871C241.129,139.234 242.218,142.201 242.218,145.421C242.218,153.145 235.957,159.405 228.232,159.405C225.014,159.405 222.049,158.318 219.686,156.491M224.706,141.894L231.76,148.947M240.022,132.451L224.706,141.894L215.264,157.211L216.442,158.39L231.76,148.947L241.202,133.63L240.022,132.451Z" style="fill:rgb(176,225,175);stroke:rgb(35,31,32);stroke-width:1.42px;"></path>        <path d="M346.335,216.654L344.264,208.512M351.416,218.777L355.554,233.936L350.729,233.936L346.874,218.777M348.613,208.512L350.836,216.654M328.918,216.654L330.989,208.512M323.838,218.777L319.699,233.936L324.523,233.936L328.378,218.777M326.64,208.512L324.417,216.654M309.669,218.777L365.584,218.777M318.679,208.352L356.574,208.352" style="fill:rgb(176,225,175);stroke:rgb(35,31,32);stroke-width:1.42px;"></path>        <path d="M299.266,162.572C293.614,162.565 287.964,162.559 282.314,162.559C280.719,162.441 279.312,161.583 279.362,159.755L279.457,128.666C279.419,127.226 280.078,126.468 281.446,126.427L319.987,126.42C321.205,126.399 322.387,126.263 323.526,125.989L329.786,124.22C331.607,123.705 333.529,123.512 335.421,123.507L348.917,123.466C354.221,123.453 356.131,125.688 359.479,129.015C360.743,130.17 361.215,132.528 360.082,133.852C359.859,134.111 359.575,134.332 359.223,134.494L339.062,134.494M354.988,162.538C340.141,162.616 325.286,162.607 310.435,162.587M353.332,134.494C357.342,137.62 361.259,141.283 364.558,145.703L365.234,146.112C367.013,146.589 369.114,147.562 370.679,148.554C371.091,148.816 371.399,149.143 371.687,149.955C373.026,153.703 372.695,156.799 372.34,160.643C372.241,161.368 371.526,161.954 370.754,162.092L366.343,162.46L366.201,162.461M304.853,155.157C308.062,155.157 310.663,157.759 310.663,160.968C310.663,164.177 308.062,166.779 304.853,166.779C301.644,166.779 299.041,164.177 299.041,160.968C299.041,157.759 301.644,155.157 304.853,155.157ZM360.585,155.157C363.794,155.157 366.396,157.759 366.396,160.968C366.396,164.177 363.794,166.779 360.585,166.779C357.376,166.779 354.774,164.177 354.774,160.968C354.774,157.759 357.376,155.157 360.585,155.157ZM364.896,145.705L350.996,145.258C350.327,145.077 349.776,144.779 349.522,144.183L348.116,138.122C348.047,137.665 348.228,137.429 348.639,137.4L356.938,137.491M292.652,131.346L282.737,131.346C282.339,131.346 282.013,131.671 282.013,132.07L282.013,137.72C282.013,138.119 282.339,138.445 282.737,138.445L292.652,138.445C293.051,138.445 293.378,138.119 293.378,137.72L293.378,132.07C293.378,131.671 293.051,131.346 292.652,131.346ZM322.839,135.456L329.106,135.456C330.041,135.456 330.805,136.219 330.805,137.154L330.805,158.163C330.805,159.097 330.041,159.86 329.106,159.86L322.839,159.86C321.904,159.86 321.141,159.097 321.141,158.163L321.141,137.154C321.141,136.219 321.904,135.456 322.839,135.456ZM314.627,135.456L301.109,135.456C300.56,135.456 300.109,135.906 300.109,136.455L300.109,144.247C300.109,144.797 300.56,145.247 301.109,145.247L314.627,145.247C315.177,145.247 315.627,144.797 315.627,144.247L315.627,136.455C315.627,135.906 315.177,135.456 314.627,135.456ZM350.851,125.921L341.862,125.921C341.565,125.921 341.323,126.165 341.323,126.462L341.323,130.316C341.323,130.612 341.565,130.856 341.862,130.856L350.851,130.856C351.147,130.856 351.39,130.613 351.39,130.316L351.39,126.462C351.39,126.164 351.146,125.921 350.851,125.921Z" style="fill:rgb(176,225,175);stroke:rgb(35,31,32);stroke-width:1.42px;"></path>        <path d="M40.769,166.777L96.18,166.777M74.706,147.032L88.782,147.032M48.167,147.032L52.48,147.032M74.706,143.025L88.782,143.025M48.167,143.025L52.569,143.025M73.226,151.04L88.782,151.04M48.167,151.04L53.535,151.04M68.612,126.391C68.413,124.258 66.504,123.192 64.375,123.192C62.245,123.192 60.336,124.258 60.137,126.391C60.032,127.504 60.282,130.137 60.835,131.134C61.319,132.006 62.446,132.843 63.694,133.129C64.299,133.219 64.45,133.219 65.054,133.129C66.303,132.843 67.43,132.006 67.914,131.134C68.467,130.137 68.717,127.504 68.612,126.391ZM70.646,151.275L72.717,151.176C73.521,151.388 74.205,149.453 74.279,148.816C74.737,145.791 74.485,140.314 72.96,137.527C71.413,134.703 57.433,134.529 55.788,137.527C54.263,140.314 54.011,145.791 54.469,148.816C54.543,149.453 55.228,151.388 56.032,151.176L58.103,151.275M66.203,153.168L65.528,165.773C65.364,167.161 69.34,167.003 69.557,165.963L71.529,153.422C72.289,150.102 66.324,149.589 66.203,153.168ZM62.545,153.168L63.22,165.773C63.385,167.161 59.408,167.003 59.191,165.963L57.22,153.422C56.46,150.102 62.425,149.589 62.545,153.168ZM72.567,147.231C71.269,147.324 69.848,147.46 68.614,147.845C67.939,148.056 67.447,149.459 67.752,150.291M60.997,150.291C61.301,149.459 60.809,148.056 60.135,147.845C58.9,147.46 57.48,147.324 56.182,147.231M71.386,147.33L70.941,140.647M57.362,147.33L57.807,140.647M62.721,154.982L65.867,154.982M48.167,154.982L57.367,154.982M51.168,154.982L51.168,166.777M88.782,154.982L71.719,154.982M85.781,154.982L85.781,166.777" style="fill:rgb(176,225,175);stroke:rgb(35,31,32);stroke-width:1.42px;"></path>        <path d="M147.221,215.758L147.963,213.508C148.295,212.668 151.602,212.816 153.593,211.365C157.658,208.399 161.997,204.498 163.15,195.875M152.727,211.916C152.727,211.916 154.702,206.971 152.439,203.674M148.326,223.707L145.971,223.707M140.386,239.334C139.465,236.738 136.091,228.18 135.433,225.865C134.934,224.108 136.192,219.053 133.31,219.358C131.426,220.121 128.529,218.559 128.435,217.139C129.957,216.695 130.261,216.559 131.783,216.117C133.9,215.502 134.834,219.563 137.679,217.307C140.333,215.231 145.993,215.231 148.648,217.307C151.492,219.563 152.427,215.502 154.544,216.117C156.065,216.559 156.371,216.695 157.892,217.139C157.798,218.559 154.901,220.121 153.017,219.358C150.135,219.053 151.393,224.108 150.894,225.865C150.236,228.18 146.862,236.738 145.941,239.334C145.366,240.961 140.961,240.961 140.386,239.334ZM139.105,215.758L138.364,213.508C138.032,212.668 134.725,212.816 132.734,211.365C128.669,208.399 124.33,204.498 123.176,195.875M133.601,211.916C133.601,211.916 131.625,206.971 133.888,203.674M138.001,223.707L140.356,223.707" style="fill:rgb(176,225,175);stroke:rgb(35,31,32);stroke-width:1.42px;"></path>        <path d="M211.993,202.494C213.906,214.682 220.133,227.012 225.808,233.936M211.993,202.494C210.08,214.682 203.854,227.012 198.179,233.936M232.492,220.244L232.492,233.936L191.706,233.936L191.706,220.244M187.765,223.691L211.993,202.494L236.222,223.691" style="fill:rgb(176,225,175);stroke:rgb(35,31,32);stroke-width:1.42px;"></path>        <path d="M262.808,233.936L275.573,227.914M278.212,226.67L288.423,221.852M288.424,233.936L262.809,221.852M284.771,219.41C286.808,216.576 285.932,212.402 283.821,208.637C275.801,215.604 282.609,206.344 274.369,199.963C274.623,207.348 271.146,208.305 267.575,211.152C264.006,213.998 267.97,220.313 267.97,220.313" style="fill:rgb(176,225,175);stroke:rgb(35,31,32);stroke-width:1.42px;"></path>        <path d="M256.674,294.268L256.674,304.945M247.311,294.268L247.311,304.945M269.051,283.588L256.506,283.586M273.789,287.147L251.769,287.147M278.527,290.707L247.031,290.705M283.266,294.268L242.294,294.266M247.311,297.826L241.271,297.826M264,297.826L256.669,297.826M284.671,297.826L277.122,297.826M247.311,301.385L241.271,301.385M264,301.385L256.669,301.385M284.671,301.387L277.122,301.387M264,304.945L241.271,304.945M284.671,304.945L277.122,304.945M264,308.504L241.271,308.504M284.671,308.506L277.122,308.506M264.028,294.268L264.026,312.068L241.271,312.068L241.271,295.035M284.671,295.035L284.671,312.065L277.104,312.065L277.104,294.268M236.849,298.358L262.778,278.875L288.709,298.358" style="fill:rgb(176,225,175);stroke:rgb(35,31,32);stroke-width:1.42px;"></path>        <path d="M143.326,67.111L141.536,93.505M143.724,61.244L143.616,62.841M135.414,47.501C135.595,45.503 134.035,44.148 132.095,43.73C130.154,43.312 128.233,43.916 127.688,45.835C127.405,46.837 127.184,49.307 127.52,50.331C127.812,51.227 128.697,52.217 129.785,52.726C130.322,52.926 130.459,52.955 131.024,52.993C132.213,52.975 133.381,52.428 133.97,51.721C134.645,50.914 135.32,48.544 135.414,47.501ZM120.941,69.688L114.294,67.576C114.294,67.576 113.752,66.005 113.998,64.948C114.243,63.892 116.698,55.925 116.698,55.925C117.913,54.591 120.625,51.45 122.512,51.657C123.387,51.753 124.259,51.898 125.129,52.053C125.701,52.155 125.958,53.252 126.279,54.02M121.16,72.791L121.436,78.178C121.462,78.651 121.274,79.056 120.934,79.412L113.713,87.361C113.327,87.855 112.631,88.647 113.197,89.24L118.848,93.828C119.259,94.2 120.414,93.105 119.959,92.252L118.186,89.331L118.241,88.561L125.003,81.956C125.281,81.632 125.564,81.279 125.852,80.889C126.252,80.43 126.432,79.338 126.522,78.942M129.751,60.632C131.042,62.641 132.325,64.645 133.613,66.662L134.528,67.322L143.2,67.108C144.62,67.201 144.99,65.599 144.834,63.396C144.631,62.702 143.318,62.889 142.602,62.878L141.952,63.095L136.122,63.035L132.674,56.487C130.951,53.217 124.912,51.956 123.567,57.609L120.933,69.311C120.659,70.876 120.385,72.21 121.914,73.768L128.335,80.977C128.66,81.304 128.838,81.696 128.905,82.14L130.199,92.546C130.276,93.168 130.56,93.988 131.38,94.007L138.407,92.461C138.961,92.434 139.002,90.843 138.078,90.562L134.617,90.417L134.111,89.834L133.608,80.107C133.535,78.695 133.362,78.702 132.637,77.479L129.039,72.195C128.595,71.536 128.302,71.29 128.612,70.397L130.879,62.389" style="fill:rgb(176,225,175);stroke:rgb(35,31,32);stroke-width:1.42px;"></path>        <path d="M82.006,282.598L90.748,282.598C94.11,282.598 95.052,274.723 89.406,274.291C88.36,270.875 85.183,268.393 81.425,268.393C78.113,268.393 75.251,270.322 73.903,273.119M54.034,291.678L54.034,294.891M62.447,284.494L62.447,287.707M58.949,288.889L58.949,292.104M55.641,285.58L55.641,288.795M52.264,287.391C48.269,287.391 47.149,278.031 53.858,277.52C55.101,273.461 58.877,270.508 63.343,270.508C67.28,270.508 70.681,272.803 72.283,276.127C80.752,275.406 80.716,286.578 76.085,287.391L64.319,287.391M38.368,310.852C56.486,310.852 71.708,292.274 96.19,308.428M69.716,308.037C69.716,308.037 85.549,302.358 104.134,311.588M38.628,302.256C38.628,302.256 49.401,300.449 61.554,304.672M104.134,302.826C104.134,302.826 94.734,299.371 83.222,302.68" style="fill:rgb(176,225,175);stroke:rgb(35,31,32);stroke-width:1.42px;"></path>        <path d="M192.921,310.109L192.921,283.608M189.615,303.076C184.897,302.305 181.144,299.76 180.212,296.262C177.931,289.365 177.951,285.633 179.658,282.793C179.947,282.313 180.251,281.871 180.542,281.441C181.318,280.301 182.007,279.246 182.091,277.801C182.242,275.178 184.446,273.109 186.339,271.731C188.656,270.043 190.673,269.188 194.371,269.811C195.073,269.928 198.898,270.883 199.58,271.094C202.818,272.1 204.576,275.084 205.967,278.416C207.488,282.061 205.343,284.84 206.7,286.412C208.271,288.234 207.831,292.162 207.323,294.289C206.098,299.44 198.448,303.354 193.131,303.383M192.921,290.318L188.487,287.588M192.921,294L200.762,289.172M192.921,298.645L184.906,293.707M210.16,305.861C213.558,305.75 216.868,303.551 217.557,301.322C219.176,296.928 219.305,294.551 218.395,292.742C218.24,292.436 218.075,292.154 217.919,291.881C217.499,291.152 217.129,290.483 217.133,289.561C217.143,287.891 215.907,286.572 214.83,285.693C213.514,284.619 212.343,284.074 210.116,284.471C209.854,284.518 208.862,284.77 208.049,284.984M202.812,301.994C204.034,303.943 206.162,305.477 208.264,305.797M210.145,310.145L210.145,302.791M176.103,311.744L221.289,312.068" style="fill:rgb(176,225,175);stroke:rgb(35,31,32);stroke-width:1.42px;"></path>        <path d="M62.773,79.393L64.91,79.393M69.428,80.312L71.566,80.312M74.649,77.065L76.787,77.065M67.914,76.525L70.051,76.525M63.436,74.631L65.573,74.631M73.853,53.775L83.297,53.775L85.948,55.777L83.297,57.671L73.853,57.671L73.853,53.775ZM73.853,46.741L64.409,46.741L61.758,48.743L64.409,50.637L73.853,50.637L73.853,46.741ZM73.853,72.821L73.853,43.603M74.024,69.338C78.055,70.242 82.292,70.867 85.663,71.357C89.529,71.92 93.145,72.335 95.832,72.615M54.881,52.534C61.729,54.577 62.899,57.021 62.754,59.26C62.513,62.998 61.519,64.841 65.734,66.755C67.342,67.484 69.222,68.109 71.223,68.649M70.819,94.007C60.649,90.308 50.881,85.901 44.95,81.109C41.675,78.499 39.922,75.901 39.339,73.472C37.795,67.029 43.38,64.442 47.622,61.596C55.549,56.275 49.864,54.097 46.778,53.258" style="fill:rgb(176,225,175);stroke:rgb(35,31,32);stroke-width:1.42px;"></path>        <path d="M258.328,54.898L258.328,45.078L268.053,45.078L268.053,51.281L258.328,51.281M260.388,92.292L266.339,84.752L266.26,82.082L257.946,73.718L258.019,72.746L266.584,69.856L270.615,63.388L273.519,64.964L278.935,77.133L285.804,80.073L293.331,92.307M234.412,92.306L240.747,74.916L247.729,71.616L253.51,59.557L256.084,56.361L260.989,56.381L261.627,58.065L267.794,59.378L268.604,61.559L264.211,67.905L253.122,71.137L252.515,72.951L259.653,81.726L259.626,83.512L248.85,91.599" style="fill:rgb(176,225,175);stroke:rgb(35,31,32);stroke-width:1.42px;"></path>        <path d="M356.846,72.007C356.961,70.784 358.056,70.172 359.277,70.172C360.499,70.172 361.594,70.784 361.709,72.007C361.769,72.646 361.625,74.156 361.308,74.728C361.03,75.229 360.384,75.709 359.668,75.873C359.32,75.925 359.233,75.925 358.887,75.873C358.171,75.709 357.523,75.229 357.246,74.728C356.93,74.156 356.786,72.646 356.846,72.007ZM336.35,58.725C336.533,61.196 336.515,63.893 336.588,66.343C336.427,69.299 336.338,72.066 336.301,75.155M347.633,74.219C347.614,71.571 347.572,68.932 347.431,66.343C347.504,63.893 347.429,61.181 347.612,58.71M347.588,59.059L348.573,65.85C349.297,68.843 350.023,71.843 350.746,74.83C351.008,75.5 351.299,74.806 351.886,75.362C353.323,76.725 355.147,78.384 356.198,79.455C356.241,80.957 356.359,82.145 356.378,83.536C356.398,85.147 356.313,86.958 356.275,88.693C356.269,89.025 356.278,89.272 356.311,89.602L356.688,93.536C356.721,93.82 356.745,94.007 357.034,94.007L358.899,94.007C359.151,94.003 359.237,93.81 359.221,93.497L359.122,89.336C359.115,89.189 359.122,89.042 359.142,88.896L359.481,85.973M359.336,92.951C359.79,93.222 361.548,93.202 361.61,92.661L362.03,88.683C362.078,88.461 362.094,88.235 362.077,88.005L362.184,86.196L361.879,80.1M362.408,86.864L363.105,86.893L364.187,86.558C364.246,84.606 364.281,83.248 364.198,81.129L363.32,77.959C362.969,76.761 361.843,76.309 360.367,76.341C358.985,76.372 356.979,76.345 356.843,76.255L353.146,73.824L351.725,66.028C351.715,64.536 350.963,58.587 350.238,57.127C349.573,55.789 348.863,54.816 347.324,54.43C345.786,54.044 338.935,54.049 337.393,54.415C335.487,54.868 334.063,56.945 333.941,58.86L333.597,64.245C333.512,64.983 333.507,65.282 333.564,66.028L334.194,74.085C334.26,74.459 334.973,74.856 335.471,75.181C335.709,75.33 335.984,75.259 336.231,75.102M338.273,46.566C338.182,47.547 338.402,49.868 338.89,50.746C339.315,51.515 340.31,52.252 341.41,52.505C341.839,52.569 342.18,52.569 342.608,52.505C343.709,52.252 344.702,51.515 345.129,50.746C345.617,49.868 345.837,47.547 345.745,46.566C345.389,42.784 338.63,42.784 338.273,46.566ZM331.65,66.992C326.469,68.214 322.533,72.903 331.478,76.22C332.377,76.527 333.274,76.829 334.171,77.126M325.489,94.254C325.819,91.353 322.702,86.325 319.878,82.485C317.871,79.756 316.008,77.868 316.857,75.116C317.983,71.463 322.337,68.151 326.585,66.992M333.58,66.992L307.065,66.992M352.436,66.992L369.896,66.992M362.541,86.857C365.132,87.985 367.56,89.199 369.782,90.539M347.963,81.544C350.142,82.248 352.275,82.955 354.346,83.682M317.048,63.264L317.048,66.514M312.401,51.504L317.048,48.72L321.695,51.504M310.866,56.444L317.048,52.526L323.229,56.444M310.166,60.767L317.048,56.333L323.931,60.767M309.85,64.807L317.048,60.139L324.247,64.807M336.383,74.032L336.319,83.116L336.516,92.58C336.555,93.472 340.509,93.627 340.297,92.523L340.891,83.489L341.627,75.254M342.382,75.254L343.116,83.489L343.713,92.523C343.5,93.627 347.454,93.472 347.493,92.58L347.688,83.116L347.626,74.032" style="fill:rgb(176,225,175);stroke:rgb(35,31,32);stroke-width:1.42px;"></path>        <g transform="matrix(0.24,0,0,0.24,0,0)">            <path d="M1500.29,350.829C1500.12,350.966 1499.98,351.086 1499.95,351.124C1499.54,351.675 1499.37,352.306 1499.44,353.009C1499.46,353.161 1499.54,353.371 1499.64,353.598C1499.54,353.818 1499.46,354.054 1499.38,354.306C1498.98,355.735 1499.05,357.895 1499.05,359.103C1499.05,360.427 1500.12,361.503 1501.44,361.503C1502.77,361.503 1503.85,360.427 1503.85,359.103C1503.85,358.534 1503.81,357.708 1503.85,356.885C1503.86,356.508 1503.96,355.936 1504.01,355.669C1504.31,355.417 1504.52,355.112 1504.67,354.781C1504.83,354.411 1504.91,353.984 1504.86,353.494C1504.84,353.355 1504.81,353.197 1504.75,353.025C1504.84,352.831 1504.9,352.641 1504.94,352.467C1505,352.125 1505.04,351.799 1505.06,351.486C1505.07,351.266 1505.08,350.919 1505.09,350.745C1505.92,349.804 1505.89,348.359 1504.99,347.456C1504.05,346.519 1502.53,346.519 1501.6,347.456C1500.67,348.379 1500.39,349.286 1500.31,350.269C1500.29,350.449 1500.29,350.635 1500.29,350.829ZM1501.21,351.78L1501.37,351.697C1501.31,351.723 1501.26,351.751 1501.21,351.78Z" style="fill:rgb(179,219,174);"></path>        </g>        <g transform="matrix(0.24,0,0,0.24,0,0)">            <path d="M1500.47,361.093C1500.47,361.919 1500.13,362.885 1499.89,363.752C1499.62,364.707 1499.44,365.588 1499.44,366.257C1499.44,368.275 1499.47,370.301 1499.47,372.321C1499.47,373.646 1500.55,374.721 1501.87,374.721C1503.2,374.721 1504.27,373.646 1504.27,372.321C1504.27,370.301 1504.24,368.275 1504.24,366.257C1504.24,365.796 1504.48,365.168 1504.67,364.487C1504.98,363.352 1505.27,362.141 1505.27,361.093C1505.27,359.768 1504.19,358.693 1502.87,358.693C1501.54,358.693 1500.47,359.768 1500.47,361.093Z" style="fill:rgb(179,219,174);"></path>        </g>        <g transform="matrix(0.24,0,0,0.24,0,0)">            <path d="M1500.18,350.32C1500.09,350.577 1500.04,350.854 1500.04,351.143C1500.04,351.908 1499.86,353.058 1499.88,353.998C1499.89,354.722 1500.01,355.37 1500.21,355.872C1500.25,355.97 1500.73,356.888 1501.25,357.514C1501.67,358.029 1502.16,358.375 1502.52,358.533C1503.17,358.822 1503.79,358.81 1504.31,358.652C1504.89,358.477 1505.48,358.116 1505.87,357.333C1506.5,356.063 1506.46,354.621 1506,353.166C1505.79,352.492 1505.48,351.813 1505.23,351.173C1505.12,350.899 1504.98,350.656 1504.98,350.432C1504.98,349.108 1503.91,348.032 1502.58,348.032C1501.3,348.032 1500.24,349.048 1500.18,350.32Z" style="fill:rgb(179,219,174);"></path>        </g>        <g transform="matrix(0.24,0,0,0.24,0,0)">            <path d="M1408.58,305.77C1405.64,307.249 1404.96,309.496 1405.19,311.948C1405.21,312.13 1405.24,312.347 1405.29,312.579C1404.83,313.286 1404.56,314.132 1404.56,315.04C1404.56,317.524 1406.57,319.54 1409.06,319.54L1409.2,319.536C1409.88,320.331 1410.84,320.888 1411.94,321.054C1414.14,321.384 1416.26,320.053 1416.91,317.924C1416.91,317.924 1417.57,315.555 1417.57,314.34C1417.57,313.396 1417.51,311.495 1417.13,309.898C1417.24,307.427 1417.84,304.928 1419.2,302.896C1420.57,300.83 1420.02,298.034 1417.95,296.656C1415.88,295.278 1413.09,295.837 1411.71,297.904C1410.14,300.251 1409.12,302.96 1408.58,305.77Z" style="fill:rgb(179,219,174);"></path>        </g>        <g transform="matrix(0.24,0,0,0.24,0,0)">            <path d="M1411.48,313.75C1411.43,314.693 1411.26,317.595 1411.18,317.995C1411.14,318.189 1411.12,318.489 1411.1,318.801C1410.52,319.601 1410.19,320.599 1410.25,321.663C1410.37,324.143 1412.49,326.056 1414.97,325.931C1417.34,325.811 1418.66,324.621 1419.45,322.977C1419.84,322.177 1420.01,320.031 1420.04,319.554C1420.25,318.317 1420.77,313.961 1420.34,311.732C1419.95,309.762 1418.91,308.523 1417.95,307.885C1415.88,306.507 1413.09,307.066 1411.71,309.133C1410.76,310.56 1410.73,312.335 1411.48,313.75ZM1414.31,316.958L1414.52,316.942C1414.44,316.946 1414.38,316.951 1414.31,316.958Z" style="fill:rgb(179,219,174);"></path>        </g>        <g transform="matrix(0.24,0,0,0.24,0,0)">            <path d="M1431.71,331.454C1432.43,332.981 1433.98,334.038 1435.78,334.038C1436.4,334.038 1437,333.911 1437.54,333.682C1438.24,333.909 1439.01,333.964 1439.79,333.809C1442.22,333.322 1443.81,330.949 1443.32,328.514C1442.4,323.94 1441.98,319.855 1441.98,315.04C1441.98,314.355 1441.79,310.941 1441.22,309.42C1440.49,307.482 1439.12,306.576 1438.05,306.223C1435.45,305.354 1431.99,310.841 1431.99,310.841C1431.99,310.841 1433.41,307.673 1434.67,307.166C1433.72,307.549 1433.04,308.021 1432.52,308.51C1431.41,309.554 1430.85,310.757 1430.68,312.28C1430.61,312.985 1430.71,313.881 1430.71,315.04C1430.71,316.277 1430.91,317.597 1431.13,318.953C1431.32,320.084 1431.59,321.257 1431.37,322.402C1430.91,324.671 1430.26,327.425 1430.84,329.777C1430.96,330.227 1431.36,330.92 1431.71,331.454ZM1439.67,313.735L1439.79,313.615C1440.23,313.157 1440.99,310.857 1440.99,310.857C1440.99,310.857 1440.43,312.363 1439.67,313.676L1439.67,313.735Z" style="fill:rgb(179,219,174);"></path>        </g>        <g transform="matrix(0.24,0,0,0.24,0,0)">            <path d="M1437.47,325.701C1437.66,327.823 1437.39,329.763 1437.39,332.239C1437.39,334.722 1439.41,336.739 1441.89,336.739C1444.37,336.739 1446.39,334.722 1446.39,332.239C1446.39,328.24 1446.77,325.366 1445.9,321.669C1445.95,321.055 1446.1,318.686 1445.73,317.597C1445.46,316.788 1445.09,316.205 1444.68,315.779C1444.79,315.569 1444.88,315.359 1444.98,315.149C1446.23,312.285 1446.58,309.378 1445.06,306.347C1443.95,304.126 1441.25,303.224 1439.03,304.335C1436.8,305.446 1435.9,308.151 1437.01,310.372C1437.25,310.849 1436.86,311.261 1436.65,311.711C1436.36,312.349 1436.01,312.982 1435.66,313.618C1434.4,315.921 1433.38,318.295 1433.38,320.687C1433.38,322.675 1434.23,323.822 1435.09,324.566C1435.74,325.13 1436.53,325.545 1437.47,325.701Z" style="fill:rgb(179,219,174);"></path>        </g>        <g transform="matrix(0.24,0,0,0.24,0,0)">            <path d="M1455.37,270.216C1455.07,270.292 1454.78,270.426 1454.52,270.621C1453.46,271.416 1453.25,272.922 1454.04,273.981C1455.05,275.322 1455.88,276.373 1457.16,277.4C1457.64,277.781 1458.36,278.598 1458.91,278.934C1459.44,279.254 1459.95,279.385 1460.39,279.404C1461.4,279.449 1462.33,279.094 1462.94,277.879C1463.53,276.701 1463.58,275.198 1463.09,273.602C1462.3,271.049 1460.08,268.147 1458.94,267.006C1458.29,266.363 1457.93,265.435 1457.73,264.43C1457.35,262.598 1457.53,260.497 1458.1,258.802C1458.52,257.546 1457.84,256.185 1456.58,255.766C1455.32,255.348 1453.96,256.028 1453.54,257.284C1452.15,261.45 1452.58,267.213 1455.37,270.216Z" style="fill:rgb(179,219,174);"></path>        </g>        <g transform="matrix(0.24,0,0,0.24,0,0)">            <path d="M1458.69,288.563C1458.72,288.958 1458.85,289.622 1459.15,290.334C1459.58,291.392 1460.36,292.579 1460.92,293.019C1461.57,293.527 1462.24,293.661 1462.8,293.624C1463.4,293.585 1463.97,293.367 1464.48,292.858C1464.78,292.555 1465.21,291.924 1465.3,290.949C1465.4,290.004 1465.18,288.064 1465.18,287.608C1465.18,283.424 1465.02,279.055 1462.21,276.245C1461.62,275.654 1460.79,275.436 1460.03,275.592C1459.6,275.408 1459.11,275.348 1458.62,275.447C1457.32,275.707 1456.48,276.972 1456.74,278.271C1457.07,279.92 1456.98,281.778 1457.12,283.419C1457.18,284.042 1456.94,284.771 1456.99,285.386C1457.06,286.164 1457.32,286.863 1457.84,287.464C1458.08,287.754 1458.59,288.426 1458.69,288.563Z" style="fill:rgb(179,219,174);"></path>        </g>        <g transform="matrix(0.24,0,0,0.24,0,0)">            <path d="M1462.23,301.836C1462.13,302.131 1461.47,304.176 1461.32,305.236C1461.13,306.67 1461.54,307.814 1462.22,308.493C1463.91,310.18 1465.23,310.286 1465.88,310.187C1466.8,310.046 1467.52,309.546 1467.97,308.642C1468.18,308.237 1468.33,307.675 1468.37,307.015C1468.41,306.329 1468.31,305.434 1468.31,304.806C1468.31,303.855 1467.76,303.032 1466.95,302.644C1467,302.374 1467.03,302.142 1467.03,301.964C1467.03,298.621 1465.9,296.404 1465.29,293.006C1465.05,291.703 1463.8,290.837 1462.5,291.074C1461.19,291.311 1460.33,292.561 1460.57,293.865C1461.12,296.9 1462.2,298.878 1462.23,301.836Z" style="fill:rgb(179,219,174);"></path>        </g>        <g transform="matrix(0.24,0,0,0.24,0,0)">            <path d="M1482.96,319.171C1481.24,317.455 1479,316.666 1476.93,315.014C1474.45,313.026 1472.43,310.573 1469.68,309.198C1468.5,308.606 1467.06,309.087 1466.46,310.271C1465.87,311.456 1466.35,312.899 1467.54,313.491C1469.99,314.717 1471.72,316.989 1473.93,318.762C1475.85,320.295 1477.97,320.972 1479.57,322.565C1480.5,323.502 1482.02,323.502 1482.96,322.565C1483.89,321.628 1483.89,320.107 1482.96,319.171Z" style="fill:rgb(179,219,174);"></path>        </g>        <g transform="matrix(0.24,0,0,0.24,0,0)">            <path d="M1482.9,325.515C1483.07,325.736 1483.25,325.965 1483.4,326.118C1484.34,327.055 1485.86,327.055 1486.8,326.118C1487.73,325.182 1487.73,323.661 1486.8,322.724C1486.42,322.349 1486.2,321.839 1485.88,321.514C1485.43,321.049 1484.89,320.725 1484.24,320.57C1483.57,320.409 1482.67,320.394 1481.47,320.995C1480.28,321.588 1479.8,323.031 1480.39,324.215C1480.87,325.17 1481.9,325.668 1482.9,325.515Z" style="fill:rgb(179,219,174);"></path>        </g>        <g transform="matrix(0.24,0,0,0.24,0,0)">            <path d="M1493.33,355.95C1493.82,356.406 1494.54,356.79 1495.45,356.995C1496.08,357.14 1496.86,357.216 1497.58,357.301C1497.87,357.335 1498.33,357.421 1498.43,357.439C1499.07,357.78 1499.7,358.519 1500.4,359.036C1501.4,359.771 1502.47,360.223 1503.58,360.223C1504.9,360.223 1505.98,359.148 1505.98,357.823C1505.98,356.527 1504.95,355.469 1503.66,355.426C1503.61,355.399 1503.45,355.312 1503.36,355.251C1503.09,355.066 1502.83,354.843 1502.58,354.623C1501.88,354.021 1501.19,353.449 1500.53,353.118C1500.01,352.857 1499.21,352.665 1498.32,352.555C1497.81,352.492 1496.97,352.365 1496.57,352.303C1496.19,351.708 1495.94,351.088 1495.51,350.525C1495.61,350.202 1495.71,349.871 1495.78,349.544C1496.18,347.739 1495.79,346.077 1494.9,345.182C1494.36,344.644 1493.77,344.484 1493.23,344.478C1492.69,344.472 1492.1,344.617 1491.56,345.121C1491.49,345.188 1491.36,345.304 1491.24,345.486C1491.37,343.643 1491.61,341.874 1492.03,340.623C1492.29,339.834 1492.3,338.97 1492.21,338.091C1492.17,337.77 1492.13,337.177 1492.12,337.055C1492.64,335.889 1492.16,334.507 1491.01,333.93C1489.82,333.337 1488.38,333.818 1487.79,335.003C1487.36,335.848 1487.27,336.783 1487.35,337.755C1487.37,338.079 1487.42,338.407 1487.45,338.732C1487.46,338.862 1487.51,338.989 1487.47,339.105C1486.45,342.164 1486.25,347.923 1486.25,351.427C1486.25,352.579 1486.36,353.964 1486.82,355.101C1487.26,356.215 1488.01,357.131 1489.14,357.696C1489.94,358.097 1490.64,358.094 1491.23,357.948C1491.84,357.795 1492.39,357.453 1492.83,356.901C1492.99,356.697 1493.17,356.323 1493.33,355.95Z" style="fill:rgb(179,219,174);"></path>        </g>        <g transform="matrix(0.24,0,0,0.24,0,0)">            <path d="M1493.06,344.463L1493.06,344.747" style="fill:none;"></path>            <path d="M1490.66,344.463L1490.66,344.747C1490.66,346.071 1491.74,347.147 1493.06,347.147C1494.38,347.147 1495.46,346.071 1495.46,344.747L1495.46,344.463C1495.46,343.138 1494.38,342.063 1493.06,342.063C1491.74,342.063 1490.66,343.138 1490.66,344.463Z" style="fill:rgb(179,219,174);"></path>        </g>        <path d="M199.083,84.904L206.896,79.166L214.707,84.904M199.482,80.726L206.896,75.281L214.308,80.726M200.366,76.189L206.896,71.397L213.423,76.189M202.302,70.876L206.896,67.512L211.488,70.876M206.896,67.512L206.896,86.9M177.886,63.704L172.4,60.326M177.886,60.527L183.25,57.223M177.886,58.007L174.851,56.138M175.623,66.737C172.395,66.21 169.827,64.468 169.188,62.074C167.627,57.355 167.642,54.801 168.81,52.858C169.008,52.53 169.216,52.227 169.415,51.934C169.946,51.152 170.417,50.431 170.474,49.441C170.578,47.648 172.085,46.231 173.381,45.288C174.966,44.134 176.347,43.549 178.877,43.974C179.357,44.054 181.976,44.708 182.442,44.853C184.658,45.541 185.86,47.583 186.812,49.863C187.853,52.356 186.386,54.258 187.313,55.335C188.388,56.582 188.087,59.269 187.741,60.726C186.902,64.249 181.667,66.928 178.029,66.948M177.886,71.551L177.886,53.416M178.819,67.674C182.58,68.195 189.542,68.968 194.271,69.86C199.372,70.821 201.115,73.209 195.873,76.205C194.821,76.805 193.654,77.42 192.429,77.968C189.455,79.397 189.552,80.96 192.729,83.326L205.231,92.64L181.534,92.64C180.898,90.693 178.158,84.379 177.042,80.67C176.311,78.179 177.521,76.345 180.265,75.411L187.179,73.059C187.774,72.877 188.993,71.973 187.305,71.233C185.287,70.275 180.006,68.299 178.428,67.664" style="fill:rgb(176,225,175);stroke:rgb(35,31,32);stroke-width:1.42px;"></path>        <path d="M346.526,312.068L346.906,307.274C342.112,308.541 337.12,308.17 333.918,307.149C335.434,306.736 337.026,305.193 336.962,304.629C332.612,304.07 330.505,302.981 328.519,301.375C332.184,300.826 335.098,299.889 337.541,297.94C335.146,297.762 329.953,295.494 329.474,293.014C334.584,292.721 339.438,293.25 341.665,288.848C339.865,289.078 336.521,288.467 333.741,286.531C338.116,285.166 341.223,282.729 343.465,279.9C341.556,280.039 339.768,279.904 338.148,279.391C342.812,276.014 346.454,273.006 348.949,267.67C351.263,272.506 354.409,275.908 359.75,279.391C357.788,279.822 355.861,280.098 354.044,279.879C356.437,282.822 359.238,284.633 363.388,286.469C361.757,287.578 358.521,288.809 356.367,288.383C358.676,293.002 364.814,292.762 369.204,293.014C368.726,295.494 363.531,297.762 361.136,297.94C363.58,299.889 366.495,300.826 370.159,301.375C368.173,302.981 366.065,304.07 361.716,304.629C361.651,305.193 365.533,306.736 367.05,307.149C365.058,307.854 356.653,307.899 351.772,307.274L352.151,312.068M327.848,306.166C326.446,306.436 323.324,306.377 321.494,306.205L321.585,310.129M319.498,306.205C316.708,306.693 311.011,306.051 309.851,305.393C310.718,305.072 312.664,304.219 313.275,303.688C310.789,303.254 310.191,302.859 309.056,301.606C311.149,301.178 312.815,300.447 314.212,298.928C312.843,298.789 309.875,297.022 309.601,295.088C312.521,294.858 315.296,295.272 316.568,291.84C315.54,292.02 313.629,291.543 312.041,290.033C314.541,288.969 316.291,288.027 317.572,285.822C316.582,285.551 315.56,285.32 314.558,284.467C317.224,281.832 319.306,280.404 320.731,276.244C322.054,280.014 323.852,281.752 326.904,284.467C326.06,285.233 325.122,285.358 324.14,285.627C325.507,287.922 326.611,288.555 328.983,289.984" style="fill:rgb(176,225,175);stroke:rgb(35,31,32);stroke-width:1.42px;"></path>    </g></svg>