<svg xmlns="http://www.w3.org/2000/svg" height="512" viewBox="0 0 58 58" width="512"><g id="Page-1" fill="none" fill-rule="evenodd"><g id="085---Cute-Face-Backpack" fill-rule="nonzero"><path id="Shape" d="m50.9 10h2.1c2.7614237 0 5-2.23857625 5-5s-2.2385763-5-5-5h-48c-2.76142375 0-5 2.23857625-5 5s2.23857625 5 5 5z" fill="#f2d45b"></path><path id="Shape" d="m8 26v7h-8v-5c.0032948-1.1032019.89679813-1.9967052 2-2z" fill="#e47e25"></path><path id="Shape" d="m58 28v5h-8v-7h6c1.1032019.0032948 1.9967052.8967981 2 2z" fill="#e47e25"></path><path id="Shape" d="m8 32v14h-4c-2.209139 0-4-1.790861-4-4v-10z" fill="#f19b1f"></path><path id="Shape" d="m58 32v10c0 2.209139-1.790861 4-4 4h-4v-14z" fill="#f19b1f"></path><path id="Shape" d="m12 6h34c2.7614237 0 5 2.23857625 5 5v40h-44v-40c0-2.76142375 2.23857625-5 5-5z" fill="#efc319"></path><path id="Shape" d="m12 11h14c.5522847 0 1 .4477153 1 1v4c0 1.1045695-.8954305 2-2 2h-12c-1.1045695 0-2-.8954305-2-2v-4c0-.5522847.4477153-1 1-1z" fill="#f8e9af"></path><path id="Shape" d="m13 18h12v6c0 1.1045695-.8954305 2-2 2h-8c-1.1045695 0-2-.8954305-2-2z" fill="#f2d45b"></path><path id="Shape" d="m32 11h14c.5522847 0 1 .4477153 1 1v4c0 1.1045695-.8954305 2-2 2h-12c-1.1045695 0-2-.8954305-2-2v-4c0-.5522847.4477153-1 1-1z" fill="#f8e9af"></path><path id="Shape" d="m33 18h12v6c0 1.1045695-.8954305 2-2 2h-8c-1.1045695 0-2-.8954305-2-2z" fill="#f2d45b"></path><circle id="Oval" cx="23.5" cy="34.5" fill="#35495e" r="3.5"></circle><circle id="Oval" cx="34.5" cy="34.5" fill="#35495e" r="3.5"></circle><path id="Shape" d="m26 41h6c.5522847 0 1 .4477153 1 1 0 2.209139-1.790861 4-4 4s-4-1.790861-4-4c0-.5522847.4477153-1 1-1z" fill="#802f34"></path><path id="Shape" d="m16 51c-.5522847 0-1-.4477153-1-1v-19c0-.5522847.4477153-1 1-1s1 .4477153 1 1v19c0 .5522847-.4477153 1-1 1z" fill="#f19b1f"></path><path id="Shape" d="m42 51c-.5522847 0-1-.4477153-1-1v-19c0-.5522847.4477153-1 1-1s1 .4477153 1 1v19c0 .5522847-.4477153 1-1 1z" fill="#f19b1f"></path><rect id="Rectangle-path" fill="#f2d45b" height="8" rx="3" width="50" x="4" y="50"></rect><g fill="#ebeff0"><circle id="Oval" cx="22" cy="33" r="1"></circle><circle id="Oval" cx="33" cy="33" r="1"></circle></g></g></g></svg>