<svg xmlns="http://www.w3.org/2000/svg" height="512" viewBox="0 0 58 59" width="512"><g id="Page-1" fill="none" fill-rule="evenodd"><g id="015---Trail-Signs" fill-rule="nonzero"><path id="Shape" d="m51 45h-20v-8h20l5 4z" fill="#a56a43"></path><path id="Shape" d="m7 11h20v-8h-20l-5 4z" fill="#a56a43"></path><path id="Rectangle-path" d="m26 31h6v27h-6z" fill="#cb8252"></path><path id="Shape" d="m26 17v-14c0-1.65685425 1.3431458-3 3-3s3 1.34314575 3 3v14z" fill="#cb8252"></path><path id="Shape" d="m57 59h-2c-.5522847 0-1-.4477153-1-1s.4477153-1 1-1h2c.5522847 0 1 .4477153 1 1s-.4477153 1-1 1z" fill="#24ae5f"></path><path id="Shape" d="m3 59h-2c-.55228475 0-1-.4477153-1-1s.44771525-1 1-1h2c.55228475 0 1 .4477153 1 1s-.44771525 1-1 1z" fill="#24ae5f"></path><rect id="Rectangle-path" fill="#f0c419" height="18" rx="1" width="42" x="8" y="15"></rect><g fill="#4fba6f"><path id="Shape" d="m23 59c-.5522847 0-1-.4477153-1-1 0-.055-.059-5.545-3.6-8.2-.4418278-.3313708-.5313708-.9581722-.2-1.4s.9581722-.5313708 1.4-.2c4.35 3.262 4.4 9.534 4.4 9.8 0 .5522847-.4477153 1-1 1z"></path><path id="Shape" d="m20 59c-.5499501.0000099-.9967003-.4440598-1-.994-.0594997-1.4020727-.9823708-2.6202148-2.316-3.057-.5246705-.174522-.808522-.7413295-.634-1.266s.7413295-.808522 1.266-.634c2.1499956.7072115 3.624232 2.6884667 3.684 4.951 0 .5522847-.4477153 1-1 1z"></path><path id="Shape" d="m35 59c-.5522847 0-1-.4477153-1-1 0-.266.05-6.538 4.4-9.8.2858125-.2143594.6642735-.2599565.9928204-.1196153s.5572656.4452995.6.8c.0427344.3547006-.1070079.705256-.3928204.9196153-3.541 2.656-3.6 8.146-3.6 8.2 0 .5522847-.4477153 1-1 1z"></path><path id="Shape" d="m38 59h-.008c-.549158-.0043934-.9920176-.4508244-.992-1 .0606006-2.2617914 1.5346804-4.242036 3.684-4.949.5246705-.174522 1.091478.1093295 1.266.634.1745219.5246705-.1093295 1.091478-.634 1.266-1.3334735.4364105-2.2563774 1.6541973-2.316 3.056-.0038469.5495491-.4504374.9930135-1 .993z"></path></g><path id="Shape" d="m14 25h-2c-.5522847 0-1-.4477153-1-1s.4477153-1 1-1h2c.5522847 0 1 .4477153 1 1s-.4477153 1-1 1z" fill="#3f5c6c"></path><path id="Shape" d="m46 25h-2c-.5522847 0-1-.4477153-1-1s.4477153-1 1-1h2c.5522847 0 1 .4477153 1 1s-.4477153 1-1 1z" fill="#3f5c6c"></path><path id="Shape" d="m40 25h-22c-.5522847 0-1-.4477153-1-1s.4477153-1 1-1h22c.5522847 0 1 .4477153 1 1s-.4477153 1-1 1z" fill="#3f5c6c"></path><path id="Shape" d="m51 59h-44c-.55228475 0-1-.4477153-1-1s.44771525-1 1-1h44c.5522847 0 1 .4477153 1 1s-.4477153 1-1 1z" fill="#24ae5f"></path></g></g></svg>