<svg xmlns="http://www.w3.org/2000/svg" height="512" viewBox="0 0 52 58" width="512"><g id="Page-1" fill="none" fill-rule="evenodd"><g id="080---Boot-Prints" transform="translate(0 -1)"><path id="Shape" d="m51.89 15c-.0653117-.673946-.1789373-1.3423317-.34-2-.8156373-3.87410194-3.0616078-7.29840364-6.29-9.59-.5552521-.39187685-1.1403789-.73960937-1.75-1.04-1.7042159-.88138608-3.5914542-1.35062682-5.51-1.37-1.8880706-.04815368-3.73507.55574097-5.23 1.71-.5263917.40960036-1.0029747.87947087-1.42 1.4-1.67 2.06-2.72 5.09-3.14 8.89-.07.64-.12 1.31-.16 2-.03.67-.05 1.36-.05 2.06 0 .65.02 1.29.05 1.94.03.67.08 1.34.15 2 .1621017 1.6864097.45295 3.3579513.87 5 .18.68.38 1.35.59 2 .7519204 2.447647 2.063175 4.6867084 3.83 6.54.306402.2852988.7597776.3454814 1.13.15l3.61-1.8.77-.39 1-.5 1 .5.77.39 3.61 1.8c.3702224.1954814.823598.1352988 1.13-.15 1.766825-1.8532916 3.0780796-4.092353 3.83-6.54.21-.65.41-1.32.59-2 .41705-1.6420487.7078983-3.3135903.87-5 .07-.66.12-1.33.15-2 .03-.65.05-1.29.05-1.94-.0006638-.6881165-.0373808-1.3757257-.11-2.06z" fill="#a56a43" fill-rule="nonzero"></path><path id="Shape" d="m47.77 49-.53-3-.35-2-.24-1.35c-.1715923-.9538298-1.0008599-1.648394-1.97-1.65h-2.44c-.0776758-.0005314-.1550594.0095621-.23.03-.0754005.0205965-.1489814.0473532-.22.08l-1.34.67c-.2836743.1399671-.6163257.1399671-.9 0l-1.34-.67c-.0710186-.0326468-.1445995-.0594035-.22-.08-.0749406-.0204379-.1523242-.0305314-.23-.03h-2.44c-.9691401.001606-1.7984077.6961702-1.97 1.65l-.24 1.35-.35 2-.53 3-.11.62c-.0792009.4557466-.1193467.9174232-.12 1.38v.02c.0048098 2.0117942.7691221 3.9475759 2.14 5.42.457922.4960471.9790508.9297608 1.55 1.29 2.6238197 1.6934412 5.9961803 1.6934412 8.62 0 .5709492-.3602392 1.092078-.7939529 1.55-1.29 1.3753183-1.4776438 2.1399396-3.421354 2.14-5.44-.0006533-.4625768-.0407991-.9242534-.12-1.38z" fill="#a56a43" fill-rule="nonzero"></path><path id="Shape" d="m19.77 49-.53-3-.35-2-.24-1.35c-.1715923-.9538298-1.0008599-1.648394-1.97-1.65h-2.44c-.0776758-.0005314-.1550594.0095621-.23.03-.0754005.0205965-.1489814.0473532-.22.08l-1.34.67c-.2836743.1399671-.6163257.1399671-.9 0l-1.34-.67c-.0710186-.0326468-.1445995-.0594035-.22-.08-.07494064-.0204379-.15232423-.0305314-.23-.03h-2.44c-.96914013.001606-1.79840771.6961702-1.97 1.65l-.24 1.35-.35 2-.53 3-.11.62c-.07920093.4557466-.11934671.9174232-.12 1.38.00006041 2.018646.76468172 3.9623562 2.14 5.44.45792197.4960471.97905084.9297608 1.55 1.29 2.6238197 1.6934412 5.9961803 1.6934412 8.62 0 .5709492-.3602392 1.092078-.7939529 1.55-1.29 1.3708779-1.4724241 2.1351902-3.4082058 2.14-5.42v-.02c-.0006533-.4625768-.0407991-.9242534-.12-1.38z" fill="#a56a43" fill-rule="nonzero"></path><path id="Shape" d="m23.79 13c-.42-3.8-1.47-6.83-3.14-8.89-1.6039074-2.0251864-4.0674884-3.17732727-6.65-3.11-1.9185458.01937318-3.8057841.48861392-5.51 1.37-.60962105.30039063-1.1947479.64812315-1.75 1.04-3.22839219 2.29159636-5.47436274 5.71589806-6.29 9.59-.16106272.6576683-.27468829 1.326054-.34 2-.07261919.6842743-.10933618 1.3718835-.11 2.06 0 .65.02 1.29.05 1.94.03.67.08 1.34.15 2 .16210172 1.6864097.45294995 3.3579513.87 5 .18.68.38 1.35.59 2 .75192041 2.447647 2.06317503 4.6867084 3.83 6.54.30613019.2858743.75988986.3461079 1.13.15l3.61-1.8.77-.39 1-.5 1 .5.77.39 3.61 1.8c.3702224.1954814.823598.1352988 1.13-.15 1.766825-1.8532916 3.0780796-4.092353 3.83-6.54.21-.65.41-1.32.59-2 .41705-1.6420487.7078983-3.3135903.87-5 .07-.66.12-1.33.15-2 .03-.65.05-1.29.05-1.94 0-.7-.02-1.39-.05-2.06-.04-.69-.09-1.36-.16-2z" fill="#a56a43" fill-rule="nonzero"></path><path id="Shape" d="m43.06 53.68c-.7948251.8424298-1.9017967 1.3199169-3.06 1.3199169s-2.2651749-.4774871-3.06-1.3199169c-.7588135-.8002349-1.0862997-1.9166653-.88-3l1.93-9.65c.0754005.0205965.1489814.0473532.22.08l1.34.67c.2836743.1399671.6163257.1399671.9 0l1.34-.67c.0710186-.0326468.1445995-.0594035.22-.08l1.93 9.65c.2062997 1.0833347-.1211865 2.1997651-.88 3z" fill="#805333" fill-rule="nonzero"></path><path id="Shape" d="m38 41-.01.03m4.02 0-.01-.03" fill="#805333" fill-rule="nonzero"></path><path id="Shape" d="m47 17.34c.1154587 5.6334216-1.7336815 11.1313433-5.23 15.55l-.77-.39-1-.5-1 .5-.77.39c-3.4963185-4.4186567-5.3454587-9.9165784-5.23-15.55 0-7.58 2.33-9.73 4.24-10.22.3304529-.08137085.6696802-.12167509 1.01-.12.3452511.0010307.6898022.03113709 1.03.09 3.52.59 7.72 4.12 7.72 10.25z" fill="#805333" fill-rule="nonzero"></path><path id="Shape" d="m19 17.34c.1154587 5.6334216-1.7336815 11.1313433-5.23 15.55l-.77-.39-1-.5-1 .5-.77.39c-3.49631845-4.4186567-5.3454587-9.9165784-5.23-15.55 0-6.13 4.2-9.66 7.72-10.25.3401978-.05886291.6847489-.0889693 1.03-.09.3403198-.00167509.6795471.03862915 1.01.12 1.91.49 4.24 2.64 4.24 10.22z" fill="#805333" fill-rule="nonzero"></path><path id="Shape" d="m10 41-.01.03m4.02 0-.01-.03"></path><g fill-rule="nonzero"><path id="Shape" d="m15.06 53.68c-.7948251.8424298-1.9017967 1.3199169-3.06 1.3199169s-2.26517488-.4774871-3.06-1.3199169c-.75881346-.8002349-1.08629971-1.9166653-.88-3l1.93-9.65c.0754005.0205965.1489814.0473532.22.08l1.34.67c.2836743.1399671.6163257.1399671.9 0l1.34-.67c.0710186-.0326468.1445995-.0594035.22-.08l1.93 9.65c.2062997 1.0833347-.1211865 2.1997651-.88 3z" fill="#805333"></path><path id="Shape" d="m47.24 46h-4.27l-2.3.82c-.4323317.1600368-.9076683.1600368-1.34 0l-2.3-.82h-4.27l.35-2h4.09c.0637574.0017103.1272839.0083973.19.02.0511361.008635.1013542.0220265.15.04l2.46.88 2.46-.88c.0486458-.0179735.0988639-.031365.15-.04.0627161-.0116027.1262426-.0182897.19-.02h4.09z" fill="#603e26"></path><path id="Shape" d="m48 51h-4.07l-3.42.9c-.3335958.093326-.6864042.093326-1.02 0l-3.42-.9h-4.07c.0006533-.4625768.0407991-.9242534.12-1.38l.11-.62h3.97c.063791.0011838.1273606.0078754.19.02.0237763-.0016098.0476255.0017972.07.01l3.54.94 3.54-.94c.0223745-.0082028.0462237-.0116098.07-.01.0626394-.0121246.126209-.0188162.19-.02h3.97l.11.62c.0792009.4557466.1193467.9174232.12 1.38z" fill="#603e26"></path><path id="Shape" d="m38.64 54.78-2.95 2.95c-.5709492-.3602392-1.092078-.7939529-1.55-1.29l2.78-2.77c.01 0 .01 0 .02.01.4586539.5114476 1.0455237.8911869 1.7 1.1z" fill="#603e26"></path><path id="Shape" d="m45.86 56.44c-.457922.4960471-.9790508.9297608-1.55 1.29l-2.95-2.95c.6544763-.2088131 1.2413461-.5885524 1.7-1.1l.02-.02z" fill="#603e26"></path><path id="Shape" d="m41 32v.5l-1-.5-1 .5v-.5c0-.17-.03-16.1-1.76-24.88.3304529-.08137085.6696802-.12167509 1.01-.12.3452511.0010307.6898022.03113709 1.03.09 1.69 9.01 1.72 24.21 1.72 24.91z" fill="#603e26"></path><path id="Shape" d="m45.26 3.41-3.78 4.41c-.6451276-.32472202-1.3314145-.56021263-2.04-.7l4.07-4.75c.6096211.30039063 1.1947479.64812315 1.75 1.04z" fill="#603e26"></path><path id="Shape" d="m36.71 7.3c-.6162755.27522632-1.1604792.68936874-1.59 1.21l-3.77-4.4c.4170253-.52052913.8936083-.99039964 1.42-1.4z" fill="#603e26"></path><path id="Shape" d="m51.89 15h-5.31c-.080928-.0001128-.1615343-.0101886-.24-.03l-7.31-1.93-5.53 1.91c-.1037029.0319869-.2114823.0488274-.32.05h-5.13c.04-.69.09-1.36.16-2h4.8l.34-.12 5.32-1.83c.1875384-.0614572.3886737-.0683929.58-.02l6.88 1.82.58.15h4.84c.1610627.6576683.2746883 1.326054.34 2z" fill="#603e26"></path><path id="Shape" d="m51.95 19c-.03.67-.08 1.34-.15 2h-4.92c-.0369499.0016435-.0739522-.0017203-.11-.01-.0547909.0006609-.1091702-.0095352-.16-.03l-7.08-1.92-6.11 1.91c-.0622348.0181023-.1257492.0314737-.19.04-.0360478.0082797-.0730501.0116435-.11.01h-4.92c-.07-.66-.12-1.33-.15-2h4.92l.08-.02 6.16-1.93c.1816324-.0582659.3764032-.0617439.56-.01l7.18 1.95.05.01z" fill="#603e26"></path><path id="Shape" d="m50.93 26c-.18.68-.38 1.35-.59 2h-5.13c-.1225224.000413-.2442344-.0198723-.36-.06l-.05-.02-4.93-1.85-4.67 1.85-.03.01c-.1173256.048131-.2432005.0719451-.37.07h-5.14c-.21-.65-.41-1.32-.59-2h5.54l4.88-1.93c.2313025-.0881812.4863377-.0917233.72-.01l5.17 1.94z" fill="#603e26"></path><path id="Shape" d="m19.24 46h-4.27l-2.3.82c-.4323317.1600368-.9076683.1600368-1.34 0l-2.3-.82h-4.27l.35-2h4.09c.06375742.0017103.1272839.0083973.19.02.05113613.008635.10135415.0220265.15.04l2.46.88 2.46-.88c.0486458-.0179735.0988639-.031365.15-.04.0627161-.0116027.1262426-.0182897.19-.02h4.09z" fill="#603e26"></path><path id="Shape" d="m20 51h-4.07l-3.42.9c-.3335958.093326-.6864042.093326-1.02 0l-3.42-.9h-4.07c.00065329-.4625768.04079907-.9242534.12-1.38l.11-.62h3.97c.06379104.0011838.12736062.0078754.19.02.02377632-.0016098.04762549.0017972.07.01l3.54.94 3.54-.94c.0223745-.0082028.0462237-.0116098.07-.01.0626394-.0121246.126209-.0188162.19-.02h3.97l.11.62c.0792009.4557466.1193467.9174232.12 1.38z" fill="#603e26"></path><path id="Shape" d="m17.86 56.44c-.457922.4960471-.9790508.9297608-1.55 1.29l-2.95-2.95c.6544763-.2088131 1.2413461-.5885524 1.7-1.1l.02-.02z" fill="#603e26"></path><path id="Shape" d="m10.64 54.78-2.95 2.95c-.57094916-.3602392-1.09207803-.7939529-1.55-1.29l2.78-2.77c.01 0 .01 0 .02.01.45865391.5114476 1.04552374.8911869 1.7 1.1z" fill="#603e26"></path><path id="Shape" d="m14.76 7.12c-1.73 8.78-1.76 24.71-1.76 24.88v.5l-1-.5-1 .5v-.5c0-.7.03-15.9 1.72-24.91.3401978-.05886291.6847489-.0889693 1.03-.09.3403198-.00167509.6795471.03862915 1.01.12z" fill="#603e26"></path><path id="Shape" d="m12.56 7.12c-.7085855.13978737-1.3948724.37527798-2.04.7l-3.78-4.41c.5552521-.39187685 1.14037895-.73960937 1.75-1.04z" fill="#603e26"></path><path id="Shape" d="m20.65 4.11-3.76 4.4c-.4350879-.5190131-.9821149-.93270227-1.6-1.21l3.93-4.6c.5320896.41026208 1.0122848.88374121 1.43 1.41z" fill="#603e26"></path><path id="Shape" d="m23.95 15h-5.13c-.1085177-.0011726-.2162971-.0180131-.32-.05l-5.53-1.91-7.26 1.92c-.09493396.0237904-.19217049.0372023-.29.04h-5.31c.06531171-.673946.17893728-1.3423317.34-2h4.84l.58-.15 6.88-1.82c.1913263-.0483929.3924616-.0414572.58.02l5.32 1.83.34.12h4.8c.07.64.12 1.31.16 2z" fill="#603e26"></path><path id="Shape" d="m23.95 19c-.03.67-.08 1.34-.15 2h-4.92c-.0369499.0016435-.0739522-.0017203-.11-.01-.0642508-.0085263-.1277652-.0218977-.19-.04l-6.11-1.91-7.08 1.92c-.05082979.0204648-.10520913.0306609-.16.03-.03265394.0082685-.06635534.0116387-.1.01h-4.93c-.07-.66-.12-1.33-.15-2h4.95l.05-.01 7.18-1.95c.1829192-.0567353.3792231-.0532299.56.01l6.16 1.93.08.02z" fill="#603e26"></path><path id="Shape" d="m22.93 26c-.18.68-.38 1.35-.59 2h-5.13c-.1300437.001957-.2591897-.0218331-.38-.07l-.03-.01-4.67-1.85-4.93 1.85-.05.02c-.11231322.040112-.23073953.0604136-.35.06h-5.14c-.21-.65-.41-1.32-.59-2h5.55l5.17-1.94c.2336623-.0817233.4886975-.0781812.72.01l4.88 1.93z" fill="#603e26"></path></g></g></g></svg>