<svg xmlns="http://www.w3.org/2000/svg" height="512" viewBox="0 0 58 59" width="512"><g id="Page-1" fill="none" fill-rule="evenodd"><g id="027---Hiker" fill-rule="nonzero"><path id="Shape" d="m55.5 32.1-54 13.96c-.88205085.2317345-1.49773469 1.0280189-1.5 1.94v9c.0032948 1.1032019.89679813 1.9967052 2 2h54c1.1032019-.0032948 1.9967052-.8967981 2-2v-22.97c-.0020033-.6174344-.2890744-1.1993298-.7778155-1.5766379-.4887411-.3773082-1.1243539-.5077248-1.7221845-.3533621z" fill="#805333"></path><path id="Shape" d="m56 3v10h-13v-9c0-.55228475.4477153-1 1-1z" fill="#ff5364"></path><path id="Shape" d="m49.36 18.45c-.3614222.3580087-.8513167.5561278-1.36.55h-11c-.4062651.0023626-.77358-.2413038-.929371-.6165185-.1557909-.3752147-.0690889-.807391.219371-1.0934815l2.59-2.58c.3899779-.3930079.3899779-1.0269921 0-1.42l-2.59-2.58c-.2884599-.2860905-.3751619-.71826679-.219371-1.09348151.155791-.37521471.5231059-.61888111.929371-.61651849h6v4z" fill="#df4d60"></path><path id="Shape" d="m50 13v4c-.0020179.5513864-.2339823 1.0769307-.64 1.45l-6.36-5.45z" fill="#802d40"></path><path id="Shape" d="m52 8h-5c-.5522847 0-1-.44771525-1-1s.4477153-1 1-1h5c.5522847 0 1 .44771525 1 1s-.4477153 1-1 1z" fill="#fff"></path><path id="Shape" d="m56 35c-.5522847 0-1-.4477153-1-1v-33c0-.55228475.4477153-1 1-1s1 .44771525 1 1v33c0 .5522847-.4477153 1-1 1z" fill="#547580"></path><path id="Shape" d="m27 40c-.5522847 0-1-.4477153-1-1v-24c0-.5522847.4477153-1 1-1s1 .4477153 1 1v24c0 .5522847-.4477153 1-1 1z" fill="#804537"></path><circle id="Oval" cx="17" cy="11" fill="#fdd7ad" r="3"></circle><path id="Shape" d="m28 20c-.0081672 1.1011688-.8988312 1.9918328-2 2h-11c-1.1032019-.0032948-1.9967052-.8967981-2-2 .0081672-1.1011688.8988312-1.9918328 2-2h11c1.1032019.0032948 1.9967052.8967981 2 2z" fill="#7d6599"></path><rect id="Rectangle-path" fill="#e64c3c" height="12" rx="3" width="8" x="5" y="14"></rect><path id="Shape" d="m19 17v1h-4c-1.1011688.0081672-1.9918328.8988312-2 2v-3c0-1.6568542 1.3431458-3 3-3s3 1.3431458 3 3z" fill="#5d4c72"></path><path id="Shape" d="m20.62 40.41c-1.0982094.1131552-2.0814326-.6823618-2.2-1.78l-.55-4.77c-.0300549-.2434998-.1010552-.4801672-.21-.7l-.66-1.29v1.76c.0014912.2459678-.0425855.4900846-.13.72l-2.95 7.62c-.3948836 1.0327725-1.5522275 1.5498836-2.585 1.155s-1.5498836-1.5522275-1.155-2.585l2.69-6.94c.0874145-.2299154.1314912-.4740322.13-.72v-12.88c.0032948 1.1032019.8967981 1.9967052 2 2h4v3.29c.0001971.468766.1097684.93102.32 1.35l1.97 3.9c.1538557.3112198.2552213.6457266.3.99l.81 6.67c.1173401 1.1013966-.6788925 2.0899775-1.78 2.21z" fill="#5d4c72"></path><path id="Shape" d="m58 34.03v1.97l-58 15v-3c.00226531-.9119811.61794915-1.7082655 1.5-1.94l54-13.96c.5978306-.1543627 1.2334434-.0239461 1.7221845.3533621.4887411.3773081.7758122.9592035.7778155 1.5766379z" fill="#24ae5f"></path><g fill="#603e26"><path id="Shape" d="m54 44h-2c-.5522847 0-1-.4477153-1-1s.4477153-1 1-1h2c.5522847 0 1 .4477153 1 1s-.4477153 1-1 1z"></path><path id="Shape" d="m54 48h-2c-.5522847 0-1-.4477153-1-1s.4477153-1 1-1h2c.5522847 0 1 .4477153 1 1s-.4477153 1-1 1z"></path><path id="Shape" d="m54 52h-2c-.5522847 0-1-.4477153-1-1s.4477153-1 1-1h2c.5522847 0 1 .4477153 1 1s-.4477153 1-1 1z"></path><path id="Shape" d="m54 56h-2c-.5522847 0-1-.4477153-1-1s.4477153-1 1-1h2c.5522847 0 1 .4477153 1 1s-.4477153 1-1 1z"></path><path id="Shape" d="m47 48h-2c-.5522847 0-1-.4477153-1-1s.4477153-1 1-1h2c.5522847 0 1 .4477153 1 1s-.4477153 1-1 1z"></path><path id="Shape" d="m47 44h-2c-.5522847 0-1-.4477153-1-1s.4477153-1 1-1h2c.5522847 0 1 .4477153 1 1s-.4477153 1-1 1z"></path><path id="Shape" d="m47 52h-2c-.5522847 0-1-.4477153-1-1s.4477153-1 1-1h2c.5522847 0 1 .4477153 1 1s-.4477153 1-1 1z"></path><path id="Shape" d="m47 56h-2c-.5522847 0-1-.4477153-1-1s.4477153-1 1-1h2c.5522847 0 1 .4477153 1 1s-.4477153 1-1 1z"></path><path id="Shape" d="m40 48h-2c-.5522847 0-1-.4477153-1-1s.4477153-1 1-1h2c.5522847 0 1 .4477153 1 1s-.4477153 1-1 1z"></path><path id="Shape" d="m40 52h-2c-.5522847 0-1-.4477153-1-1s.4477153-1 1-1h2c.5522847 0 1 .4477153 1 1s-.4477153 1-1 1z"></path><path id="Shape" d="m40 56h-2c-.5522847 0-1-.4477153-1-1s.4477153-1 1-1h2c.5522847 0 1 .4477153 1 1s-.4477153 1-1 1z"></path><path id="Shape" d="m33 48h-2c-.5522847 0-1-.4477153-1-1s.4477153-1 1-1h2c.5522847 0 1 .4477153 1 1s-.4477153 1-1 1z"></path><path id="Shape" d="m33 52h-2c-.5522847 0-1-.4477153-1-1s.4477153-1 1-1h2c.5522847 0 1 .4477153 1 1s-.4477153 1-1 1z"></path><path id="Shape" d="m33 56h-2c-.5522847 0-1-.4477153-1-1s.4477153-1 1-1h2c.5522847 0 1 .4477153 1 1s-.4477153 1-1 1z"></path><path id="Shape" d="m26 52h-2c-.5522847 0-1-.4477153-1-1s.4477153-1 1-1h2c.5522847 0 1 .4477153 1 1s-.4477153 1-1 1z"></path><path id="Shape" d="m26 56h-2c-.5522847 0-1-.4477153-1-1s.4477153-1 1-1h2c.5522847 0 1 .4477153 1 1s-.4477153 1-1 1z"></path><path id="Shape" d="m19 52h-2c-.5522847 0-1-.4477153-1-1s.4477153-1 1-1h2c.5522847 0 1 .4477153 1 1s-.4477153 1-1 1z"></path><path id="Shape" d="m19 56h-2c-.5522847 0-1-.4477153-1-1s.4477153-1 1-1h2c.5522847 0 1 .4477153 1 1s-.4477153 1-1 1z"></path><path id="Shape" d="m12 56h-2c-.55228475 0-1-.4477153-1-1s.44771525-1 1-1h2c.5522847 0 1 .4477153 1 1s-.4477153 1-1 1z"></path><path id="Shape" d="m6 56h-2c-.55228475 0-1-.4477153-1-1s.44771525-1 1-1h2c.55228475 0 1 .4477153 1 1s-.44771525 1-1 1z"></path></g></g></g></svg>